<?xml version="1.0" encoding="iso-8859-1"?>
<!-- Generator: Adobe Illustrator 19.0.0, SVG Export Plug-In . SVG Version: 6.00 Build 0)  -->
<svg version="1.1" id="Layer_1" xmlns="http://www.w3.org/2000/svg" xmlns:xlink="http://www.w3.org/1999/xlink" x="0px" y="0px"
	 viewBox="0 0 509 509" style="enable-background:new 0 0 509 509;" xml:space="preserve">
<circle style="fill:#71D456;" cx="254.5" cy="254.5" r="254.5"/>
<path style="fill:#F1F3F7;" d="M202,160.2h-59.5c-8.7,0-16.9,3.9-22.5,10.6l-43.4,52.9c-2,2.4-4.4,4.5-7.1,6.2L38.9,249
	c-8.5,5.3-13.7,14.6-13.7,24.6V342h176.6V160.2H202z"/>
<path style="fill:#4485C5;" d="M186.7,231.2v-55.7h-44.2c-4.1,0-8,1.8-10.6,5l-41.5,50.6h96.3V231.2z"/>
<circle style="fill:#414753;" cx="93" cy="341.8" r="38.4"/>
<circle style="fill:#DEDEDF;" cx="93" cy="341.8" r="22.1"/>
<path style="fill:#F1F3F7;" d="M450.2,116.3H214.7c-7,0-12.7,5.7-12.7,12.7v213.1h260.9V129C462.9,122,457.2,116.3,450.2,116.3z"/>
<circle style="fill:#414753;" cx="366.5" cy="341.8" r="38.4"/>
<circle style="fill:#DEDEDF;" cx="366.5" cy="341.8" r="22.1"/>
<path style="fill:#F0582F;" d="M174.6,134.2c-0.3-2.1-2.1-3.7-4.2-3.7h-16.6c-2.1,0-4,1.6-4.2,3.7l-2.5,18.5h30.2L174.6,134.2z"/>
<polygon style="fill:#333842;" points="146.9,152.7 145.9,160.2 178.1,160.2 177.1,152.7 "/>
<path style="fill:#FBD303;" d="M32.3,303.4h-6.9v22.1h6.9c3.3,0,5.9-2.7,5.9-5.9v-10.2C38.2,306,35.6,303.4,32.3,303.4z"/>
<rect x="198" y="160.2" style="fill:#DEDEDF;" width="4" height="181.9"/>
<g>
	<path style="fill:#4485C5;" d="M270.5,175.5H232c-2.7,0-4.9,2.2-4.9,4.9v45.8c0,2.7,2.2,4.9,4.9,4.9h38.5c2.7,0,4.9-2.2,4.9-4.9
		v-45.8C275.4,177.7,273.2,175.5,270.5,175.5z"/>
	<path style="fill:#4485C5;" d="M435.1,175.5H295.3c-2.7,0-4.9,2.2-4.9,4.9v45.8c0,2.7,2.2,4.9,4.9,4.9h139.8c2.7,0,4.9-2.2,4.9-4.9
		v-45.8C440,177.7,437.8,175.5,435.1,175.5z"/>
</g>
<g>
	<rect x="25.4" y="273.7" style="fill:#F0582F;" width="437.5" height="24.1"/>
	<rect x="222.6" y="136.1" style="fill:#F0582F;" width="15.1" height="15.1"/>
	<rect x="250.1" y="136.1" style="fill:#F0582F;" width="15.1" height="15.1"/>
</g>
<g>
</g>
<g>
</g>
<g>
</g>
<g>
</g>
<g>
</g>
<g>
</g>
<g>
</g>
<g>
</g>
<g>
</g>
<g>
</g>
<g>
</g>
<g>
</g>
<g>
</g>
<g>
</g>
<g>
</g>
</svg>
