<svg xmlns="http://www.w3.org/2000/svg" xmlns:xlink="http://www.w3.org/1999/xlink" data-name="Layer 1" viewBox="0 0 629.25 595.1"><defs><linearGradient id="b" x1="642.86" x2="663.39" y1="184.49" y2="74.02" gradientUnits="userSpaceOnUse"><stop offset="0" stop-color="#ecc4d7"/><stop offset=".42" stop-color="#efd4d1"/><stop offset="1" stop-color="#f2eac9"/></linearGradient><linearGradient id="a" x1="408.78" x2="451.01" y1="322.86" y2="322.86" gradientUnits="userSpaceOnUse"><stop offset=".01" stop-color="#fff" stop-opacity="0"/><stop offset=".13" stop-color="#fff" stop-opacity=".17"/><stop offset=".37" stop-color="#fff" stop-opacity=".46"/><stop offset=".59" stop-color="#fff" stop-opacity=".68"/><stop offset=".77" stop-color="#fff" stop-opacity=".85"/><stop offset=".91" stop-color="#fff" stop-opacity=".95"/><stop offset="1" stop-color="#fff" stop-opacity=".99"/></linearGradient><linearGradient id="f" x1="474.64" x2="433.37" y1="293.93" y2="292.68" xlink:href="#a"/><linearGradient id="g" x1="513.21" x2="584.95" y1="115.91" y2="170.57" xlink:href="#b"/><linearGradient id="c" x1="549.61" x2="473.97" y1="90.86" y2="117.17" gradientUnits="userSpaceOnUse"><stop offset="0" stop-color="#183866"/><stop offset="1" stop-color="#1a7fc1"/></linearGradient><linearGradient id="h" x1="476.53" x2="545.24" y1="64.99" y2="64.99" xlink:href="#b"/><linearGradient id="i" x1="488.57" x2="478.75" y1="66.34" y2="69.76" xlink:href="#c"/><linearGradient id="j" x1="437.45" x2="508.78" y1="193.45" y2="179.56" xlink:href="#a"/><linearGradient id="k" x1="541.76" x2="478.69" y1="215.62" y2="181.46" xlink:href="#a"/><linearGradient id="l" x1="319.34" x2="345.23" y1="214.45" y2="212.18" xlink:href="#a"/><linearGradient id="m" x1="439.78" x2="447.1" y1="310.91" y2="271.55" xlink:href="#b"/><linearGradient id="n" x1="445.77" x2="443.3" y1="267.05" y2="344.65" xlink:href="#a"/><linearGradient id="o" x1="534.55" x2="528.77" y1="252.97" y2="358.64" xlink:href="#a"/><linearGradient id="d" x1="438" x2="446.97" y1="171.91" y2="171.91" gradientUnits="userSpaceOnUse"><stop offset="0" stop-color="#68e1fd"/><stop offset=".2" stop-color="#5db4cf"/><stop offset=".46" stop-color="#50819b"/><stop offset=".69" stop-color="#475c76"/><stop offset=".87" stop-color="#41455e"/><stop offset=".99" stop-color="#3f3d56"/></linearGradient><linearGradient id="p" x1="474.58" x2="483.55" y1="172.45" y2="172.45" xlink:href="#d"/><linearGradient id="q" x1="518.43" x2="535.94" y1="205.21" y2="205.21" gradientTransform="rotate(45 527.186 205.218)" xlink:href="#d"/><linearGradient id="r" x1="525.19" x2="537.52" y1="204.43" y2="204.43" gradientTransform="rotate(45 527.594 204.426)" xlink:href="#d"/><linearGradient id="s" x1="536.74" x2="520.66" y1="187.66" y2="217.12" gradientTransform="rotate(45 529.573 200.806)" xlink:href="#d"/><linearGradient id="e" x1="332.73" x2="339.97" y1="325.98" y2="404.68" gradientUnits="userSpaceOnUse"><stop offset="0" stop-opacity="0"/><stop offset=".99"/></linearGradient><linearGradient id="t" x1="201.65" x2="195.15" y1="298.81" y2="501.16" xlink:href="#e"/><linearGradient id="u" x1="160.91" x2="536.1" y1="410.82" y2="405.57" xlink:href="#e"/><linearGradient id="v" x1="431.17" x2="445.9" y1="562.07" y2="562.07" xlink:href="#b"/><linearGradient id="w" x1="5288.03" x2="5303.24" y1="566.49" y2="566.49" gradientTransform="matrix(-1 0 0 1 5803.16 0)" xlink:href="#b"/><linearGradient id="x" x1="396.44" x2="445.9" y1="576.32" y2="576.32" xlink:href="#e"/><linearGradient id="y" x1="497.35" x2="545.94" y1="580.91" y2="580.91" xlink:href="#e"/><linearGradient id="z" x1="245.69" x2="255.82" y1="283.6" y2="412.11" xlink:href="#e"/><linearGradient id="A" x1="317.4" x2="92.66" y1="269.33" y2="505.46" xlink:href="#e"/></defs><path fill="#68e1fd" d="M231.12 57.64c-25.4 24.19-38.62 58.81-63.21 83.82C123.02 187.1 45.28 196.1 13.29 251.6c-16 27.63-16.62 62.3-7 92.69s28.78 57 50.49 80.38c38.64 41.59 86.68 74.7 140 94.13 25.3 9.22 52.2 15.42 79 13.32 31.66-2.47 61.32-16.24 92.55-22 32.94-6 67.11-3 99.91-9.84s66.45-27.39 73.35-60.17c4.29-20.4-2.52-42 2.1-62.29 8.08-35.49 46.54-54.25 67.68-83.89a96.29 96.29 0 0 0 17.72-52.66c.6-20.1-5.81-41.09-20.53-54.78-11.13-10.34-25.83-15.71-39.92-21.38C503.62 139 450.19 99.32 393.38 59.49c-48.76-34.21-114.44-47.39-162.26-1.85Z" opacity=".18"/><path fill="#25233a" d="m321.56 374.33 10.31 177.63 16.65 1.28 37.95-184.1 16.07 186.45h16.65l29.37-178.49-62.09-35.12-64.91 32.35z"/><path fill="url(#b)" d="M636.6 146.32s3.18-7 1.07-19.72 11.67-30.51 11.67-30.51a6.05 6.05 0 0 1 3.07 6.15l9.86-25.67s4.86-2.35 9.7 11.31 1.07 25.6-.29 32.17c-2.27 11.06-12.24 19.2-12.81 24.4a87.18 87.18 0 0 1-2.59 12.13Z" transform="translate(-97.38 -1.9)"/><path fill="#fff" d="M483.55 106s-44-.11-47.74 2.37-13.47 8.58-19.73 24.31-38.71 102.23-38.71 102.23-2.59 8.94 6.07 17.91 36.09 41.35 36.09 41.35l-10.75 81.63s68 5.13 76-15.37c0 0 24.81 14.09 61.2 18.58l12 4.56 1-154.19a44.1 44.1 0 0 0 41.28 15.41c26.9-4.16 52.49-38.44 64-81.81l-37.13-19.6s-14.09 55.76-37.79 46.1c-16.53-6.75-16.52-32.14-18.38-50a22.88 22.88 0 0 0-17.48-19.89l-31.45-7.47Z" transform="translate(-97.38 -1.9)" style="isolation:isolate"/><path fill="#68e1fd" d="m353.62 267.58-4.89 106.14s-30.47 1.25-37.34.18l10.75-81.62Z"/><path fill="url(#a)" d="m451 269.48-4.89 106.14s-30.47 1.25-37.34.18l10.75-81.62Z" transform="translate(-97.38 -1.9)"/><path fill="#68e1fd" d="m461.6 227.48-9.96-22.42-13.08 170.53 22.05 6.08.99-154.19z"/><path fill="url(#f)" d="m461.6 227.48-9.96-22.42-13.08 170.53 22.05 6.08.99-154.19z"/><path fill="#25233a" d="M384.09 120.9s24.25 16.52 37.76 4.85l-35.76 151.16Z"/><path fill="url(#g)" d="M487.58 82.64s-11.25 43-3.25 52.35 33 10.14 34.9-7.34 10.19-40.85 10.19-40.85Z" transform="translate(-97.38 -1.9)"/><path fill="url(#c)" d="M486.36 93.15s9.57 24 17.82 27.81 15.43 1 16.47-2.35S526 97.29 526 97.29Z" opacity=".19" transform="translate(-97.38 -1.9)"/><path fill="url(#h)" d="M545.24 59c0 27.29-15.38 49.41-34.36 49.41S476.53 86.26 476.53 59s16.88-37.36 35.85-37.36S545.24 31.69 545.24 59Z" transform="translate(-97.38 -1.9)"/><path fill="#3f3d56" d="M461.19 41.42c-1.29 7.45-5.47 14.11-10.38 19.86 0-.49-.08-1-.13-1.48-.5-5.48-1.36-11-3.73-15.93-2.59-5.4-7.25-10.09-13.1-11.34-3.9-.84-8.09-.14-12.12.07-3.3.16-6.49 0-9.33-1.62a27.88 27.88 0 0 0-4.13-2.45c-8.23-3-13.75 11.76-14.08 17.41-.38 6.52.68 13.32-1.62 19.45-2-.78-2.73-3.17-3.48-5.2s-2.32-4.27-4.45-3.93a3.82 3.82 0 0 0-2.49 1.91c-1.67 2.71-1.25 6.24-.08 9.2s3 5.64 4.13 8.62a19.72 19.72 0 0 1-.66 15.26 57.32 57.32 0 0 1-9.81-21.26l-5 4.35q.17-9.43.33-18.87c.27-14.62 1-30.54 10.52-41.62 7.3-8.51 18.68-12.57 29.84-13.59 12.39-1.12 25.46 1.31 35.48 8.69s16.42 20.2 14.29 32.47Z"/><path fill="#25233a" d="M456.19 41.48c-3.7 12.39-5.51 18.32-5.51 18.32-.5-5.48-1.36-11-3.73-15.93-2.59-5.4-7.25-10.09-13.1-11.34-3.9-.84-8.09-.14-12.12.07 0 0 15-7.91 21.66-9.91s16.5 6.41 12.8 18.79Z"/><path fill="url(#i)" d="M486.36 70.93s-3.42-1.39-2.35-4.06.11-4.1-1-4.45-4.36 2.42-1 8.51 4.35 0 4.35 0Z" opacity=".19" transform="translate(-97.38 -1.9)"/><path fill="#68e1fd" d="m381.36 98.54-10 3.47a5.18 5.18 0 0 0-3.38 3.9l-8.9 46 17.2 2.74-8.94 12.34 18.71 100.56-1.35-166.65a2.54 2.54 0 0 0-3.34-2.36ZM424.68 110.18l10.69 3.9 3.19 47h-15.29l6.53 13.24-43.71 102.59s33.4-131.34 38.59-166.73Z"/><path fill="url(#j)" d="m478.74 100.44-10 3.47a5.18 5.18 0 0 0-3.38 3.9l-8.9 46 17.2 2.74-8.94 12.34 18.71 100.56-1.35-166.65a2.54 2.54 0 0 0-3.34-2.36Z" transform="translate(-97.38 -1.9)"/><path fill="url(#k)" d="m522.06 112.08 10.69 3.9 3.19 47h-15.29l6.53 13.24-43.71 102.59s33.4-131.34 38.59-166.73Z" transform="translate(-97.38 -1.9)"/><path fill="#68e1fd" d="m337.58 156.72-15.39 79.82 31.45 31.04-16.06-110.86z"/><path fill="url(#l)" d="m337.58 156.72-15.39 79.82 31.45 31.04-5.89-40.66-10.17-70.2z"/><path fill="#25233a" d="m353.64 267.58-22.83 28.44-8.66-3.75 28.77-27.38 2.72 2.69z"/><path fill="url(#m)" d="M448.46 272.66s6.9 15 8 23.65l-28.31 1.61Z" transform="translate(-97.38 -1.9)"/><path fill="#fff" d="m425.13 297.92 44.87-1.61s-3.24 46-3.52 51.1-48.69 8.59-48.69 8.59ZM555.08 299.58l-44.17-3s-4.79 45.68-4.51 50.81 45.18 11.67 45.18 11.67Z" transform="translate(-97.38 -1.9)" style="isolation:isolate"/><path fill="#68e1fd" d="m327.75 296.02 44.87-1.61s-3.24 46-3.52 51.1-48.69 8.59-48.69 8.59Z"/><path fill="url(#n)" d="m425.13 297.92 44.87-1.61s-3.24 46-3.52 51.1-48.69 8.59-48.69 8.59Z" transform="translate(-97.38 -1.9)"/><path fill="#68e1fd" d="m457.7 297.68-44.17-3s-4.79 45.68-4.51 50.81 45.18 11.67 45.18 11.67Z"/><path fill="url(#o)" d="m555.08 299.58-44.17-3s-4.79 45.68-4.51 50.81 45.18 11.67 45.18 11.67Z" transform="translate(-97.38 -1.9)"/><path fill="#25233a" d="m533.08 143.22 2.26-3.61 30.45 17.11 1.13 4.35-33.84-17.85z"/><path fill="none" stroke="#222a72" stroke-linecap="round" stroke-miterlimit="10" stroke-width="3.03" d="M365.17 130.79c-.42-28.11 22.19-35.4 22.19-35.4M344.89 168.3c-2.13-47.68 41.28-50.17 37.36 0"/><path fill="url(#d)" d="M447 171.91a4.49 4.49 0 1 1-4.49-4.48 4.49 4.49 0 0 1 4.49 4.48Z" transform="translate(-97.38 -1.9)"/><path fill="url(#p)" d="M483.55 172.45a4.49 4.49 0 1 1-4.49-4.49 4.49 4.49 0 0 1 4.49 4.49Z" transform="translate(-97.38 -1.9)"/><path fill="none" stroke="#222a72" stroke-linecap="round" stroke-miterlimit="10" stroke-width="3.03" d="M426.53 104.1s33.74 16.23 14.05 76.86l-8.54 17.93"/><circle cx="527.18" cy="205.21" r="8.75" fill="url(#q)" transform="rotate(-45 476.204 321.8)"/><circle cx="527.59" cy="204.43" r="6.16" fill="url(#r)" transform="rotate(-45 476.606 321.033)"/><circle cx="529.57" cy="200.8" r="6.16" fill="url(#s)" transform="rotate(-45 478.58 317.396)"/><path fill="#68e1fd" d="M267.62 340.96H141.75a5.83 5.83 0 0 1-5.83-5.86 5.83 5.83 0 0 1 5.83-5.83h125.87a5.83 5.83 0 0 1 5.83 5.83 5.83 5.83 0 0 1-5.83 5.86Z"/><path fill="#68e1fd" d="M205.62 335.1a5.82 5.82 0 0 1-5.83 5.83H.62V329.3h199.19a5.84 5.84 0 0 1 5.81 5.8Z"/><path fill="url(#e)" d="M370.81 337a5.84 5.84 0 0 1-5.83 5.83h-67.79a5.83 5.83 0 0 0 0-11.66H365a5.83 5.83 0 0 1 5.81 5.83Z" transform="translate(-97.38 -1.9)"/><path fill="url(#t)" d="M303 337a5.82 5.82 0 0 1-5.83 5.83H98V331.2h199.19A5.84 5.84 0 0 1 303 337Z" transform="translate(-97.38 -1.9)"/><path fill="#68e1fd" d="M141.75 340.96h123.78v138.53H141.75z"/><path fill="url(#u)" d="M141.75 340.96h123.78v138.53H141.75z"/><path fill="#68e1fd" d="M.63 340.96h205.01v138.53H.63z"/><path fill="url(#v)" d="m431.17 561.55.43-7.69 14.3 1.28-1.9 11.53s-7.07 10.89-12.83-5.12Z" transform="translate(-97.38 -1.9)"/><path fill="url(#w)" d="m515.12 567.81-.54-10.32-14.66-.14v12.94s9.44 13.53 15.2-2.48Z" transform="translate(-97.38 -1.9)"/><path fill="#68e1fd" d="M333.79 559.65s-27 13.31-30.18 18.15a39.87 39.87 0 0 0-4.55 11.38s16.51.29 26.76-3.13 22.7-7.12 22.7-7.12v-17.65s-.21-2.06-3.2.29-6 4.55-8.65 3-1.28-5.03-2.88-4.92ZM418.44 563.67s23.63 14.69 26.4 19.74a40.22 40.22 0 0 1 3.72 11.69s-16.49-.91-26.46-5.06-22.13-8.75-22.13-8.75l1.28-17.6s.36-2 3.17.51 8 5.52 10.79 4.19 1.64-4.95 3.23-4.72Z"/><path fill="url(#x)" d="M431.17 561.55s-27 13.31-30.18 18.15a39.87 39.87 0 0 0-4.55 11.38s16.51.29 26.76-3.13 22.7-7.12 22.7-7.12v-17.65s-.21-2.06-3.2.29-6 4.55-8.65 3-1.28-5.03-2.88-4.92Z" transform="translate(-97.38 -1.9)"/><path fill="url(#y)" d="M515.82 565.57s23.63 14.69 26.4 19.74a40.22 40.22 0 0 1 3.72 11.69s-16.49-.91-26.46-5.06-22.13-8.75-22.13-8.75l1.28-17.6s.36-2 3.17.51 8 5.52 10.79 4.19 1.64-4.95 3.23-4.72Z" transform="translate(-97.38 -1.9)"/><path fill="#68e1fd" d="M206.45 329.1v.19H96.89s16-52.63 64.68-51c.95 0 1.88.08 2.78.15 45.03 3.29 42.77 46.26 42.1 50.66Z"/><path fill="#68e1fd" d="M206.45 329.1h-28l.21-2.77s8.54-41-14.3-47.85c45.02 3.25 42.76 46.22 42.09 50.62Z"/><path fill="url(#z)" d="M303.83 331v.19H194.27s16-52.63 64.68-51c.95 0 1.88.08 2.78.15 45.03 3.29 42.77 46.26 42.1 50.66Z" transform="translate(-97.38 -1.9)"/><path fill="url(#A)" d="M303.83 331h-28l.21-2.77s8.54-41-14.3-47.85c45.02 3.25 42.76 46.22 42.09 50.62Z" transform="translate(-97.38 -1.9)"/></svg>